<svg xmlns="http://www.w3.org/2000/svg" width="60" height="60" viewBox="0 0 90 60" fill="none">
<g clip-path="url(#clip0_222_31120)">
<g clip-path="url(#clip1_222_31120)">
<path d="M22.0369 62.2489L23.2218 61.3668H23.7789V66.0243H23.0096V62.4959L22.4436 62.9281L22.0369 62.2489Z" fill="#67430C"></path>
<path d="M28.5177 65.1687C28.0849 65.6723 27.473 65.9885 26.811 66.0507L26.5545 65.4509C26.9839 65.4029 27.3869 65.2196 27.7048 64.9278C28.0228 64.636 28.2394 64.2507 28.3231 63.8279C28.2218 63.9653 28.0882 64.0758 27.934 64.1497C27.7798 64.2235 27.6097 64.2584 27.4388 64.2513C27.2526 64.2545 27.0678 64.2193 26.8959 64.148C26.7239 64.0766 26.5686 63.9707 26.4396 63.8367C26.3046 63.7016 26.1988 63.5403 26.1289 63.3628C26.0589 63.1852 26.0262 62.9953 26.0328 62.8046C26.0267 62.5954 26.0653 62.3873 26.1461 62.1941C26.2269 62.001 26.3481 61.8272 26.5015 61.6844C26.7913 61.4128 27.1738 61.2614 27.5715 61.261C27.796 61.2501 28.0202 61.2888 28.228 61.3741C28.4359 61.4595 28.6223 61.5895 28.7741 61.755C29.085 62.1068 29.2467 62.5654 29.2251 63.034C29.2598 63.808 29.008 64.5678 28.5177 65.1687ZM27.545 62.0637C27.4482 62.062 27.352 62.0799 27.2624 62.1162C27.1727 62.1526 27.0913 62.2068 27.0232 62.2754C26.8905 62.4125 26.8174 62.5964 26.8198 62.787C26.8161 62.8899 26.8337 62.9925 26.8715 63.0884C26.9093 63.1842 26.9665 63.2713 27.0395 63.3441C27.1125 63.417 27.1998 63.474 27.2959 63.5117C27.392 63.5494 27.4948 63.5669 27.598 63.5632C27.7653 63.5716 27.9311 63.5276 28.0722 63.4375C28.2133 63.3474 28.3226 63.2156 28.385 63.0605C28.385 62.4959 28.0755 62.0902 27.545 62.0902V62.0637Z" fill="#67430C"></path>
<path d="M30.9771 65.301L31.4104 64.7452C31.5104 64.9199 31.6543 65.0654 31.828 65.1675C32.0017 65.2696 32.1992 65.3247 32.4007 65.3274C32.8871 65.3274 33.1524 65.054 33.1524 64.6835C33.1524 64.313 32.8341 64.0219 32.2681 64.0219H31.9321V63.2633H32.2327C32.3227 63.2706 32.4132 63.2594 32.4987 63.2305C32.5842 63.2016 32.6629 63.1556 32.73 63.0953C32.797 63.035 32.8511 62.9617 32.8887 62.8799C32.9264 62.7981 32.9469 62.7094 32.949 62.6194C32.9504 62.5473 32.9367 62.4756 32.9089 62.409C32.881 62.3424 32.8396 62.2823 32.7872 62.2325C32.7348 62.1827 32.6726 62.1444 32.6046 62.1199C32.5365 62.0954 32.4641 62.0852 32.3919 62.0902C32.2139 62.0873 32.0383 62.1315 31.883 62.2182C31.7277 62.305 31.5982 62.4312 31.5076 62.5841L31.0832 62.046C31.2163 61.8055 31.4168 61.6089 31.6603 61.4804C31.9038 61.3519 32.1796 61.2971 32.4538 61.3227C32.622 61.3014 32.7928 61.3161 32.9548 61.3658C33.1168 61.4155 33.2664 61.499 33.3936 61.6108C33.5207 61.7226 33.6226 61.8602 33.6923 62.0143C33.762 62.1685 33.798 62.3356 33.7979 62.5047C33.8115 62.7406 33.7494 62.9747 33.6206 63.1729C33.4918 63.3712 33.303 63.5234 33.0817 63.6073C33.3408 63.6505 33.5748 63.7881 33.7381 63.9934C33.9015 64.1987 33.9827 64.4572 33.9659 64.7188C33.9716 64.9078 33.9357 65.0957 33.8609 65.2694C33.786 65.4431 33.674 65.5984 33.5326 65.7244C33.2281 65.9772 32.8409 66.1091 32.445 66.0948C32.15 66.1153 31.8552 66.0515 31.5953 65.9109C31.3353 65.7703 31.1208 65.5587 30.9771 65.301Z" fill="#67430C"></path>
<path d="M38.6867 61.949C38.9811 62.4888 39.1189 63.0997 39.0847 63.7132C39.0847 65.1863 38.5718 66.086 37.5372 66.086C36.5026 66.086 35.9631 65.2039 35.9631 63.7132C35.9631 62.2225 36.4849 61.3315 37.5283 61.3315C37.7596 61.3188 37.9899 61.3696 38.1942 61.4785C38.3985 61.5874 38.5689 61.7501 38.6867 61.949ZM37.5372 65.3539C38.0677 65.3539 38.2711 64.8599 38.2711 63.6956C38.2711 62.5312 38.0589 62.0372 37.5283 62.0372C36.9978 62.0372 36.7767 62.5577 36.7767 63.6956C36.7767 64.8334 37.0331 65.3539 37.5372 65.3539Z" fill="#67430C"></path>
<path d="M19.2691 63.7397H13.2029V64.3042H19.2691V63.7397Z" fill="#67430C"></path>
<path d="M13.1933 63.7397L12.7866 63.0075C12.6876 62.8294 12.5429 62.6807 12.3673 62.5769C12.1917 62.473 11.9915 62.4176 11.7873 62.4165H5.12866V62.7253H5.71229C5.81206 62.7259 5.90984 62.7532 5.99539 62.8044C6.08095 62.8556 6.15114 62.9288 6.19865 63.0163L6.66732 63.7397H13.1933Z" fill="#67430C"></path>
<path d="M13.1933 64.3042L12.7866 65.0451C12.6872 65.2223 12.5422 65.3696 12.3665 65.472C12.1908 65.5744 11.9908 65.628 11.7873 65.6273H5.12866V65.3098H5.71229C5.81206 65.3091 5.90984 65.2818 5.99539 65.2306C6.08095 65.1794 6.15114 65.1062 6.19865 65.0187L6.66732 64.3042H13.1933Z" fill="#67430C"></path>
<path d="M5.35043 63.4662C5.1962 63.3671 5.01661 63.3143 4.83313 63.3143C4.64965 63.3143 4.47005 63.3671 4.31582 63.4662L4.05053 63.6426C3.82116 63.758 3.56297 63.804 3.30773 63.7749H3.00708V64.2071H3.21046C3.46828 64.1867 3.72647 64.2419 3.95326 64.3659L4.28045 64.5776C4.43468 64.6768 4.61427 64.7295 4.79775 64.7295C4.98123 64.7295 5.16083 64.6768 5.31506 64.5776L6.19935 64.0219L5.35043 63.4662Z" fill="#67430C"></path>
<path d="M41.8969 64.3042H47.9631V63.7396H41.8969V64.3042Z" fill="#67430C"></path>
<path d="M47.9543 64.3042L48.37 65.0451C48.4693 65.2223 48.6144 65.3696 48.7901 65.472C48.9658 65.5744 49.1657 65.628 49.3692 65.6273H56.0279V65.3186H55.4442C55.3452 65.3198 55.2476 65.2941 55.162 65.2444C55.0764 65.1947 55.0058 65.1228 54.9579 65.0363L54.4892 64.3042H47.9543Z" fill="#67430C"></path>
<path d="M47.9543 63.7397L48.37 63.0075C48.4689 62.8294 48.6136 62.6807 48.7892 62.5769C48.9649 62.473 49.165 62.4176 49.3692 62.4165H56.0279V62.7429H55.4442C55.3452 62.7417 55.2476 62.7674 55.162 62.8171C55.0764 62.8668 55.0058 62.9387 54.9579 63.0252L54.4892 63.7397H47.9543Z" fill="#67430C"></path>
<path d="M55.8069 64.5776C55.9594 64.6771 56.1376 64.73 56.3198 64.73C56.502 64.73 56.6802 64.6771 56.8327 64.5776L57.1068 64.4012C57.3362 64.2858 57.5943 64.2398 57.8496 64.2689H58.1503V63.8543H57.9115C57.6534 63.8786 57.3941 63.8232 57.1687 63.6956L56.8327 63.4839C56.6802 63.3844 56.502 63.3315 56.3198 63.3315C56.1376 63.3315 55.9594 63.3844 55.8069 63.4839L54.9226 64.0396L55.8069 64.5776Z" fill="#67430C"></path>
<path d="M1.58228 56.6653H59.5648V5.63651V4.03111L53.4456 2.21401L50.7662 1.37603L44.4259 3.39601L43.9484 5.63651H16.8274V3.44893L9.47894 1.37603L4.23513 3.33426L2.38697 3.85469L1.58228 56.6653Z" fill="#ECE0B5"></path>
<path d="M41.8531 48.0914H36.4944V53.3839H41.8531V48.0914ZM25.6442 48.0914H20.2854V53.3839H25.6442V48.0914ZM41.8531 46.5919C41.8531 45.883 41.5709 45.2032 41.0684 44.702C40.5659 44.2007 39.8844 43.9191 39.1738 43.9191C38.4632 43.9191 37.7816 44.2007 37.2792 44.702C36.7767 45.2032 36.4944 45.883 36.4944 46.5919V47.0947H41.8531V46.5919ZM56.6561 2.54921L51.2177 -2.28882e-05L45.5406 2.47864L41.7913 2.53157L42.5341 4.42806H43.4183V5.63652H18.4815V4.38396H19.3658L19.8698 2.5051L15.5191 2.56686L9.7536 0.0176226L3.78468 2.49629L0.00878906 2.54921L0.742747 4.44569H1.62703V56.6829H22.6642V57.4768H39.4656V56.6829H59.5477V4.42806H60.5469L61.0421 2.54921H56.6561ZM18.4992 6.88027H43.4626V9.16487H18.4992V6.88027ZM43.4626 10.6556V27.1595H18.623V10.6556H43.4626ZM16.4123 55.0334H10.8059V53.4457C10.4451 53.2631 10.0427 53.178 9.63865 53.1987C9.24828 53.1715 8.85834 53.2573 8.51561 53.4457V55.0334H3.2099V42.4902H16.4742L16.4123 55.0334ZM43.4626 55.0334H39.4656V55.8185H34.266V48.0826H27.8814V55.8185H22.6642V55.0334H18.5965V42.4902H43.436L43.4626 55.0334ZM57.7261 55.0334H52.3761V53.4457C51.9954 53.2864 51.5864 53.2054 51.1735 53.2075C50.794 53.1964 50.4175 53.2782 50.077 53.4457V55.0334H44.4264V42.4902H57.6907L57.7261 55.0334ZM57.7261 38.4061V41.0523H3.2099V4.42806H4.09418L9.82434 2.04641L15.2892 4.42806H16.4476V20.0939V38.4325H18.6584V28.2003H43.4979V38.4414H44.4618V5.63652V4.42806H45.8413L51.2885 2.04641L56.4262 4.42806H57.7703L57.7261 38.4061ZM25.6442 46.583C25.6442 45.8742 25.3619 45.1944 24.8594 44.6931C24.3569 44.1919 23.6754 43.9103 22.9648 43.9103C22.2542 43.9103 21.5727 44.1919 21.0702 44.6931C20.5677 45.1944 20.2854 45.8742 20.2854 46.583V47.0947H25.6442V46.583ZM13.503 27.1771H5.86275V8.65326C6.34312 8.16837 6.91386 7.78183 7.54289 7.51537C8.13926 7.23763 8.76951 7.03894 9.41758 6.92437V5.44246C7.67634 5.66425 6.05227 6.43716 4.78392 7.64768V38.4414H5.86275V28.1827H13.4941V38.4149H14.4226V7.19782H13.4941L13.503 27.1771ZM34.2571 46.583C34.2571 45.7993 33.945 45.0477 33.3895 44.4935C32.8339 43.9394 32.0804 43.6281 31.2948 43.6281H30.8438C30.0581 43.6281 29.3047 43.9394 28.7491 44.4935C28.1936 45.0477 27.8814 45.7993 27.8814 46.583V47.0241H34.2571V46.583ZM12.0527 47.0947H7.21571V50.7906H12.0527V47.0947ZM12.0527 44.4484C11.2586 44.2248 10.4373 44.112 9.61213 44.1132C8.80123 44.1081 7.99392 44.221 7.21571 44.4484V46.0714H12.0527V44.4484ZM7.63132 31.023V32.7343H11.7609V31.023C11.0794 30.8289 10.374 30.7309 9.66518 30.7319C8.97652 30.7279 8.29107 30.826 7.63132 31.023ZM7.63132 38.4237H11.7609V33.7751H7.63132V38.4237ZM7.2334 23.684H12.1589V17.9858H7.2334V23.684ZM7.2334 16.7332V16.9184H12.1589V16.7332C12.1212 16.1071 11.8454 15.519 11.3877 15.0889C10.93 14.6589 10.3249 14.4194 9.69613 14.4194C9.06736 14.4194 8.4623 14.6589 8.00458 15.0889C7.54686 15.519 7.27102 16.1071 7.2334 16.7332ZM53.5346 44.3955C52.7373 44.1724 51.9131 44.0597 51.0851 44.0603C50.2743 44.0563 49.4671 44.1692 48.6887 44.3955V46.0185H53.5346V44.3955ZM53.5346 47.0417H48.6621V50.7377H53.508L53.5346 47.0417ZM49.0424 31.0142V32.7254H53.172V31.0142C52.4934 30.8206 51.7909 30.7226 51.0851 30.7231C50.3842 30.7188 49.6866 30.8199 49.0159 31.023L49.0424 31.0142ZM49.0424 38.4149H53.172V33.7751H49.0159L49.0424 38.4149ZM48.6445 16.7244V16.9096H53.5699V16.7244C53.5323 16.0983 53.2565 15.5102 52.7987 15.0801C52.341 14.6501 51.736 14.4106 51.1072 14.4106C50.4784 14.4106 49.8734 14.6501 49.4157 15.0801C48.9579 15.5102 48.6821 16.0983 48.6445 16.7244ZM48.6445 23.6752H53.5699V17.9858H48.6445V23.6752ZM20.7806 38.4061H25.6265V33.5458H20.7806V38.4061ZM36.9896 38.4061H41.8355V33.5458H36.9896V38.4061ZM20.7806 30.4673V32.5226H25.6265V30.4673C24.8293 30.2443 24.0051 30.1315 23.1771 30.1321C22.3578 30.1227 21.5415 30.2327 20.7541 30.4585L20.7806 30.4673ZM36.9896 30.4673V32.5226H41.8355V30.4673C41.0382 30.2443 40.214 30.1315 39.386 30.1321C38.5667 30.1227 37.7505 30.2327 36.9631 30.4585L36.9896 30.4673ZM29.031 30.4673V32.5226H33.8681V30.4673C33.0739 30.2437 32.2526 30.131 31.4274 30.1321C30.6022 30.1198 29.7797 30.2298 28.9868 30.4585L29.031 30.4673ZM29.031 38.4061H33.8681V33.5458H29.031V38.4061ZM25.9007 17.4389H20.5419V23.6752H25.9007V17.4389ZM34.1333 16.1157C34.1333 15.4069 33.8511 14.7271 33.3486 14.2258C32.8461 13.7246 32.1646 13.443 31.454 13.443C30.7433 13.443 30.0618 13.7246 29.5594 14.2258C29.0569 14.7271 28.7746 15.4069 28.7746 16.1157V16.398H34.1333V16.1157ZM41.8797 16.1157C41.8797 15.4057 41.5969 14.7248 41.0936 14.2227C40.5903 13.7206 39.9077 13.4386 39.1959 13.4386C38.4841 13.4386 37.8015 13.7206 37.2981 14.2227C36.7948 14.7248 36.5121 15.4057 36.5121 16.1157V16.398H41.8797V16.1157ZM41.8797 17.4389H36.5121V23.6752H41.8797V17.4389ZM25.9007 16.1157C25.9007 15.4069 25.6184 14.7271 25.1159 14.2258C24.6134 13.7246 23.9319 13.443 23.2213 13.443C22.5107 13.443 21.8291 13.7246 21.3267 14.2258C20.8242 14.7271 20.5419 15.4069 20.5419 16.1157V16.398H25.9007V16.1157ZM34.1333 17.4389H28.7746V23.6752H34.1333V17.4389ZM54.9936 27.1418H47.3622V8.61798C47.8493 8.14343 48.4185 7.76089 49.0424 7.48891C49.6367 7.20583 50.2676 7.0069 50.9171 6.8979V5.416C49.1767 5.64079 47.5536 6.41328 46.2834 7.62122V38.4149H47.3888V28.1827H55.0202V38.4149H55.9044V7.18899H55.0202L54.9936 27.1418Z" fill="#67430C"></path>
</g>
</g>
<defs>
<clipPath id="clip0_222_31120">
<rect width="210" height="66" fill="white"></rect>
</clipPath>
<clipPath id="clip1_222_31120">
<rect width="210" height="66.086" fill="white"></rect>
</clipPath>
</defs>
</svg>